<svg xmlns="http://www.w3.org/2000/svg" viewBox="0 0 26 26"><path d="M12.992 25.49c1.713 0 3.323-.325 4.83-.976a12.637 12.637 0 0 0 3.986-2.71 12.908 12.908 0 0 0 2.709-3.994c.655-1.507.983-3.112.983-4.815 0-1.703-.328-3.308-.983-4.815A12.842 12.842 0 0 0 21.8 4.185a12.728 12.728 0 0 0-3.994-2.71C16.3.825 14.69.5 12.976.5c-1.702 0-3.307.325-4.813.975a12.545 12.545 0 0 0-3.979 2.71A12.974 12.974 0 0 0 1.483 8.18 11.944 11.944 0 0 0 .5 12.995c0 1.703.328 3.308.983 4.815a12.907 12.907 0 0 0 2.709 3.995 12.637 12.637 0 0 0 3.986 2.71c1.507.65 3.111.975 4.814.975Zm0-2.354c-1.403 0-2.717-.26-3.94-.782a10.054 10.054 0 0 1-3.22-2.175 10.186 10.186 0 0 1-2.166-3.236 10.003 10.003 0 0 1-.782-3.948A10.09 10.09 0 0 1 5.817 5.81a10.053 10.053 0 0 1 3.22-2.176c1.223-.52 2.536-.782 3.94-.782 1.414 0 2.732.261 3.955.782a10.144 10.144 0 0 1 3.227 2.176 10.23 10.23 0 0 1 2.183 3.236 9.918 9.918 0 0 1 .79 3.948c0 1.404-.261 2.72-.782 3.948a10.186 10.186 0 0 1-2.167 3.236c-.924.929-2 1.654-3.228 2.175-1.228.522-2.549.782-3.963.782Zm8.344-2.09-.046-.155c-.186-.598-.65-1.184-1.394-1.757-.743-.573-1.703-1.045-2.879-1.417-1.176-.371-2.518-.557-4.025-.557-1.496 0-2.835.186-4.017.557-1.181.372-2.141.844-2.879 1.417-.738.573-1.2 1.159-1.385 1.757l-.047.155c.733.723 1.613 1.334 2.64 1.835 1.026.5 2.048.882 3.064 1.145 1.017.264 1.891.395 2.624.395.733 0 1.61-.131 2.632-.395a16.083 16.083 0 0 0 3.065-1.145 10.194 10.194 0 0 0 2.647-1.835Zm-8.344-5.93a3.757 3.757 0 0 0 2.121-.588 4.35 4.35 0 0 0 1.502-1.642c.371-.691.557-1.476.557-2.353 0-.815-.186-1.564-.558-2.245a4.445 4.445 0 0 0-1.501-1.633 3.817 3.817 0 0 0-2.12-.612c-.775 0-1.48.204-2.114.612A4.422 4.422 0 0 0 9.37 8.288a4.49 4.49 0 0 0-.542 2.245c0 .877.186 1.66.557 2.346a4.305 4.305 0 0 0 1.502 1.625c.63.398 1.331.602 2.105.612Z" /></svg>