<svg xmlns="http://www.w3.org/2000/svg" viewBox="0 0 25 25"><path d="M18.994 24.258h-.035a19.162 19.162 0 0 1-12.84-5.373A19.142 19.142 0 0 1 .744 6.051a2.5 2.5 0 0 1 .732-1.795L4.87.866a1.25 1.25 0 0 1 1.767 0l5 5a1.25 1.25 0 0 1 0 1.768L9.641 9.625a9.375 9.375 0 0 0 1.993 3.74 9.356 9.356 0 0 0 3.735 1.994l2-1.992a1.25 1.25 0 0 1 1.767 0l5 5a1.25 1.25 0 0 1 0 1.767l-3.392 3.391a2.47 2.47 0 0 1-1.75.733ZM5.75 3.519h-.006l-2.5 2.505a16.556 16.556 0 0 0 4.64 11.092 16.565 16.565 0 0 0 11.09 4.64l2.51-2.506-3.24-3.231-1.617 1.615a1.234 1.234 0 0 1-1.136.339 12.75 12.75 0 0 1-5.625-2.839 12.75 12.75 0 0 1-2.839-5.625 1.25 1.25 0 0 1 .342-1.143L8.984 6.75 5.75 3.52Z" /></svg>