<svg xmlns="http://www.w3.org/2000/svg" viewBox="0 0 24 27"><path fill-rule="evenodd" clip-rule="evenodd" d="M8.111.102c-.716 0-1.296.594-1.296 1.328V2.76c0 .734.58 1.329 1.296 1.329h7.778c.716 0 1.296-.595 1.296-1.329V1.43c0-.734-.58-1.328-1.296-1.328H8.11Zm-5.104 4.04c.042-.045.081-.054.104-.054h1.482c.715 0 1.296-.595 1.296-1.329S5.309 1.43 4.593 1.43H3.11c-.763 0-1.477.331-1.992.89a3.036 3.036 0 0 0-.786 2.052v19.361c0 .756.275 1.495.786 2.052.515.56 1.23.89 1.992.89h17.778c.763 0 1.477-.33 1.991-.89a3.036 3.036 0 0 0 .787-2.052V4.373c0-.756-.275-1.495-.787-2.052a2.704 2.704 0 0 0-1.991-.89h-1.482c-.716 0-1.296.594-1.296 1.328 0 .734.58 1.329 1.296 1.329h1.482c.023 0 .062.009.103.054.045.048.082.13.082.23v19.361c0 .101-.037.183-.082.23-.041.046-.08.055-.103.055H3.11c-.023 0-.062-.009-.104-.054a.343.343 0 0 1-.081-.23V4.372c0-.1.037-.182.081-.23Zm8.604 4.105c.716 0 1.296.594 1.296 1.328v3.648h3.63c.716 0 1.296.594 1.296 1.328 0 .734-.58 1.329-1.296 1.329h-3.63v3.66c0 .734-.58 1.33-1.296 1.33-.716 0-1.296-.596-1.296-1.33v-3.66h-3.5c-.716 0-1.297-.595-1.297-1.329s.58-1.329 1.297-1.329h3.5V9.575c0-.734.58-1.328 1.296-1.328Z"/></svg>
