<svg xmlns="http://www.w3.org/2000/svg" viewBox="0 0 26 26"><path fill-rule="evenodd" clip-rule="evenodd" d="M10.344 2.844c0-.173.14-.313.312-.313h4.688c.172 0 .312.14.312.313v5h-5.312v-5Zm-2.5 5v-5A2.812 2.812 0 0 1 10.656.03h4.688a2.812 2.812 0 0 1 2.812 2.813v5h5a2.813 2.813 0 0 1 2.813 2.812v4.688a2.812 2.812 0 0 1-2.813 2.812h-5v5a2.812 2.812 0 0 1-2.812 2.813h-4.688a2.813 2.813 0 0 1-2.812-2.813v-5h-5A2.812 2.812 0 0 1 .03 15.344v-4.688a2.812 2.812 0 0 1 2.813-2.812h5Zm0 7.812h-5a.312.312 0 0 1-.313-.312v-4.688c0-.172.14-.312.313-.312h5v5.312Zm2.5 0v-5.312h5.312v5.312h-5.312Zm0 2.5v5c0 .173.14.313.312.313h4.688c.172 0 .312-.14.312-.313v-5h-5.312Zm7.812-2.5h5c.173 0 .313-.14.313-.312v-4.688a.313.313 0 0 0-.313-.312h-5v5.312Z" /></svg>